<?xml version="1.0" standalone="no"?>
<!DOCTYPE svg PUBLIC "-//W3C//DTD SVG 20010904//EN"
 "http://www.w3.org/TR/2001/REC-SVG-20010904/DTD/svg10.dtd">
<svg version="1.0" xmlns="http://www.w3.org/2000/svg"
 width="131.000000pt" height="131.000000pt" viewBox="0 0 131.000000 131.000000"
 preserveAspectRatio="xMidYMid meet">
<metadata>
Created by potrace 1.14, written by Peter Selinger 2001-2017
</metadata>
<g transform="translate(0.000000,131.000000) scale(0.100000,-0.100000)"
fill="#000000" stroke="none">
<path d="M372 1271 c-18 -22 -56 -51 -89 -67 -48 -24 -69 -28 -142 -29 -47 0
-98 3 -114 8 l-28 8 2 -143 c1 -79 4 -137 6 -130 7 19 19 14 20 -9 1 -14 -3
-19 -13 -15 -17 7 -19 -20 -1 -27 9 -4 8 -8 -3 -16 -12 -9 -11 -11 9 -9 13 2
26 -3 28 -9 3 -8 -5 -13 -20 -13 l-25 0 -1 -361 -1 -361 25 4 c14 3 28 1 31
-3 3 -5 -2 -9 -10 -9 -23 0 -14 -42 10 -50 34 -13 62 6 70 45 4 21 14 39 23
42 9 3 31 12 48 21 42 21 60 7 46 -35 l-10 -28 50 0 c31 0 52 5 54 12 5 14 72
57 79 51 2 -3 -6 -10 -19 -17 -12 -7 -41 -39 -64 -72 l-43 -59 35 0 c23 0 35
5 35 14 0 7 7 19 15 26 17 14 62 80 85 123 14 28 15 28 30 10 30 -36 129 -59
144 -34 3 5 30 12 61 16 30 3 57 11 61 16 3 6 17 15 31 20 14 5 27 18 30 29 3
11 9 20 14 20 5 0 9 6 9 14 0 7 8 20 17 27 9 8 14 9 10 2 -10 -17 3 -43 22
-43 15 0 71 60 71 76 0 4 -16 4 -35 1 -20 -3 -37 -1 -41 5 -5 7 15 9 60 6 39
-2 60 -1 51 5 -24 13 -17 38 15 50 36 14 37 23 6 52 -47 43 -44 185 4 185 20
0 31 25 27 65 -1 11 2 46 7 77 6 44 5 61 -7 78 -17 25 -12 97 10 118 17 17 17
36 1 26 -10 -6 -10 -5 -1 8 7 8 16 36 19 62 4 26 12 53 18 59 27 30 76 97 76
104 0 4 -14 23 -30 42 -17 18 -30 35 -30 36 0 1 11 0 25 -3 14 -2 25 -11 25
-18 0 -28 42 -32 94 -9 93 41 77 44 -216 44 l-273 1 36 -21 c19 -12 41 -30 48
-41 14 -23 12 -22 -59 26 -48 32 -78 35 -222 21 -47 -5 -68 -4 -68 4 0 6 -20
11 -48 11 -45 0 -51 -3 -80 -39z m363 -14 c3 -4 2 -5 -1 -3 -9 7 -54 -36 -54
-51 0 -7 7 -13 15 -13 8 0 15 -4 15 -10 0 -5 9 -10 19 -10 11 0 23 -5 26 -10
4 -6 11 -8 16 -5 13 9 11 -7 -5 -27 -16 -22 -39 -23 -56 -3 -14 16 -40 20 -40
6 0 -5 -9 -11 -19 -14 -15 -3 -18 -1 -14 12 2 9 -7 3 -22 -14 -15 -16 -43 -47
-63 -69 -20 -21 -37 -46 -38 -55 -1 -9 -7 -31 -12 -48 -10 -32 -8 -37 12 -34
5 1 4 -4 -2 -12 -16 -19 -1 -70 22 -73 10 -1 28 -11 40 -22 11 -11 31 -25 44
-31 16 -9 22 -19 20 -39 -3 -25 -1 -27 27 -22 47 7 128 5 149 -4 14 -7 17 -5
14 10 -2 10 -16 25 -31 32 -51 24 -27 51 26 28 34 -14 35 -16 41 -88 8 -84 5
-104 -32 -206 -19 -51 -32 -72 -44 -72 -18 0 -33 -33 -23 -51 4 -6 -2 -13 -13
-16 -11 -3 -23 -11 -26 -19 -3 -8 -16 -14 -30 -14 -16 0 -34 -12 -50 -32 l-25
-33 -23 22 c-22 22 -22 23 -3 38 11 8 30 15 43 15 33 0 27 44 -7 48 -45 7 -70
-6 -68 -34 3 -37 -16 -40 -46 -8 -21 22 -23 30 -14 45 8 13 18 17 32 12 24 -8
35 -7 105 8 30 6 65 12 78 13 63 3 -30 79 -98 79 -22 0 -29 4 -26 14 3 7 4 13
2 13 -3 0 -11 3 -19 6 -12 4 -14 0 -10 -14 3 -14 -7 -28 -36 -51 -28 -22 -41
-41 -41 -57 0 -29 -7 -30 -39 -5 -37 28 -84 166 -79 233 3 39 7 45 47 67 41
22 48 23 89 12 50 -13 63 -8 40 16 -24 23 -108 29 -145 10 l-30 -16 -6 64 c-3
35 -2 78 4 97 6 18 12 64 14 102 3 38 8 72 13 75 10 7 26 43 24 54 -1 4 4 7
12 7 8 0 16 4 18 8 2 4 22 23 45 41 32 25 40 37 32 47 -5 7 -6 14 -2 17 14 8
63 5 63 -4 0 -18 21 -8 32 16 6 13 15 22 19 19 5 -3 9 -1 9 4 0 10 77 9 85 -1z
m-650 -307 c3 -5 1 -10 -4 -10 -6 0 -11 5 -11 10 0 6 2 10 4 10 3 0 8 -4 11
-10z m10 -40 c-3 -5 -15 -8 -26 -7 -19 1 -19 2 -3 14 18 13 38 8 29 -7z m-28
-47 c10 -30 24 -42 40 -36 12 5 12 7 1 15 -9 7 -8 8 7 6 14 -3 19 -10 17 -23
-5 -28 -7 -28 -39 -13 -16 7 -29 23 -31 35 -2 12 -11 24 -20 26 -15 4 -15 5 1
6 10 0 20 -7 24 -16z m94 2 c34 -14 34 -14 7 -15 -16 0 -28 4 -28 9 0 5 -8 12
-17 14 -10 3 -13 5 -7 6 7 0 27 -6 45 -14z m24 -35 c3 -5 1 -10 -4 -10 -6 0
-11 5 -11 10 0 6 2 10 4 10 3 0 8 -4 11 -10z m-113 -28 c4 -15 1 -18 -18 -14
-18 3 -20 7 -11 18 16 18 24 17 29 -4z m205 -14 c-3 -8 -6 -5 -6 6 -1 11 2 17
5 13 3 -3 4 -12 1 -19z m-57 -28 c0 -5 -7 -7 -15 -4 -8 4 -15 8 -15 10 0 2 7
4 15 4 8 0 15 -4 15 -10z m505 0 c-3 -5 -19 -10 -36 -10 -16 0 -29 5 -29 10 0
6 16 10 36 10 21 0 33 -4 29 -10z m-682 -55 c-3 -9 -8 -14 -10 -11 -3 3 -2 9
2 15 9 16 15 13 8 -4z m202 -23 c-8 -8 -25 10 -25 26 0 13 2 13 14 -4 8 -10
13 -21 11 -22z m23 13 c-3 -3 -9 2 -12 12 -6 14 -5 15 5 6 7 -7 10 -15 7 -18z
m-63 -5 c-4 -11 -3 -20 2 -19 19 3 27 -2 14 -10 -9 -6 -21 -3 -35 10 -18 17
-19 21 -6 29 24 15 32 12 25 -10z m-188 -32 c-3 -8 -6 -5 -6 6 -1 11 2 17 5
13 3 -3 4 -12 1 -19z m49 -16 c-4 -3 -11 0 -16 8 -15 24 -11 33 6 15 9 -9 13
-19 10 -23z m38 -27 c-9 -14 -18 -25 -20 -25 -7 0 10 35 20 42 17 12 17 9 0
-17z m121 15 c3 -5 1 -10 -4 -10 -6 0 -11 5 -11 10 0 6 2 10 4 10 3 0 8 -4 11
-10z m740 -32 c-11 -51 -33 -98 -45 -98 -18 0 -2 102 18 118 26 20 34 14 27
-20z m-815 -28 c0 -5 -4 -10 -10 -10 -5 0 -10 5 -10 10 0 6 5 10 10 10 6 0 10
-4 10 -10z m30 0 c0 -5 -5 -10 -11 -10 -5 0 -7 5 -4 10 3 6 8 10 11 10 2 0 4
-4 4 -10z m445 -150 c-3 -5 -11 -10 -16 -10 -6 0 -7 5 -4 10 3 6 11 10 16 10
6 0 7 -4 4 -10z m-255 -75 c0 -8 -4 -15 -10 -15 -5 0 -7 7 -4 15 4 8 8 15 10
15 2 0 4 -7 4 -15z m-250 -97 c0 -19 -2 -20 -10 -8 -13 19 -13 30 0 30 6 0 10
-10 10 -22z m-34 -25 c-10 -10 -19 5 -10 18 6 11 8 11 12 0 2 -7 1 -15 -2 -18z
m14 -151 c0 -13 -12 -22 -22 -16 -10 6 -1 24 13 24 5 0 9 -4 9 -8z"/>
<path d="M455 1050 c3 -5 11 -10 16 -10 6 0 7 5 4 10 -3 6 -11 10 -16 10 -6 0
-7 -4 -4 -10z"/>
<path d="M705 691 c-3 -6 1 -18 10 -27 13 -13 18 -14 31 -3 13 10 17 10 24 -1
5 -8 12 -11 16 -7 4 4 1 14 -7 22 -20 19 -65 29 -74 16z"/>
<path d="M430 672 c-13 -11 -20 -24 -16 -30 10 -17 26 -15 26 3 0 8 5 15 10
15 6 0 10 -7 10 -15 0 -8 4 -15 9 -15 14 0 41 41 35 52 -9 14 -51 9 -74 -10z"/>
<path d="M1233 868 c-48 -19 -72 -43 -57 -57 4 -3 9 0 11 7 3 7 27 24 54 37
27 14 49 28 49 30 0 6 5 8 -57 -17z"/>
<path d="M1146 864 c-3 -9 -6 -22 -6 -31 0 -13 2 -13 15 1 16 16 20 46 6 46
-5 0 -12 -7 -15 -16z"/>
<path d="M1150 776 c0 -14 -4 -28 -10 -31 -5 -3 -10 -14 -10 -23 1 -10 9 -3
20 18 21 39 25 60 10 60 -5 0 -10 -11 -10 -24z"/>
<path d="M1080 734 c0 -8 5 -12 10 -9 6 3 10 10 10 16 0 5 -4 9 -10 9 -5 0
-10 -7 -10 -16z"/>
<path d="M998 560 c-6 -19 4 -100 12 -100 11 0 18 24 22 70 2 26 -1 36 -13 38
-10 2 -19 -2 -21 -8z"/>
<path d="M1096 361 c-3 -5 8 -11 24 -13 20 -3 30 0 30 9 0 14 -46 18 -54 4z"/>
<path d="M1045 340 c5 -9 69 -40 81 -40 2 0 4 5 4 10 0 6 -8 10 -19 10 -10 0
-24 7 -31 15 -14 17 -45 21 -35 5z"/>
<path d="M1004 275 c11 -8 29 -15 40 -15 18 0 16 3 -8 15 -36 19 -57 19 -32 0z"/>
<path d="M880 197 c0 -24 12 -46 46 -85 42 -48 46 -56 35 -78 -6 -14 -11 -27
-11 -29 0 -3 79 -5 176 -5 114 0 173 3 169 10 -3 5 -15 10 -25 10 -10 0 -56
12 -100 26 -64 20 -80 29 -76 41 5 11 2 14 -10 9 -10 -4 -30 4 -49 18 -18 14
-53 30 -79 37 -25 6 -43 15 -40 20 8 14 -5 46 -21 53 -11 4 -15 -3 -15 -27z"/>
<path d="M970 210 c0 -6 7 -10 15 -10 8 0 15 2 15 4 0 2 -7 6 -15 10 -8 3 -15
1 -15 -4z"/>
<path d="M965 181 l-20 -8 20 -5 c11 -2 32 -1 47 3 15 4 28 4 30 1 2 -4 20
-23 41 -41 33 -32 37 -33 37 -14 0 15 -14 29 -46 47 -48 27 -74 31 -109 17z"/>
<path d="M167 95 c3 -14 11 -25 17 -25 18 0 12 44 -6 48 -12 2 -14 -3 -11 -23z"/>
<path d="M107 32 c-26 -28 -21 -32 33 -32 49 0 95 23 84 42 -10 16 -100 9
-117 -10z"/>
<path d="M18 23 c-33 -8 -18 -19 22 -15 22 2 37 8 34 13 -5 9 -26 10 -56 2z"/>
</g>
</svg>
